<svg width="64" height="64" viewBox="0 0 64 64" fill="none" xmlns="http://www.w3.org/2000/svg">
  <rect width="64" height="64" rx="16" fill="#1A1A1A"/>
  <path d="M17 49L38 28" stroke="#FAFAF8" stroke-width="6" stroke-linecap="round"/>
  <path d="M17 49L38 28" stroke="#C9B99A" stroke-width="2.5" stroke-linecap="round"/>
  <path d="M43 7L47.2 17.2L58 18.1L49.8 25.1L52.3 36L43 30.3L33.7 36L36.2 25.1L28 18.1L38.8 17.2L43 7Z" fill="#C9B99A"/>
  <path d="M43 14.5L45.1 19.6L50.5 20.1L46.4 23.6L47.6 29L43 26.2L38.4 29L39.6 23.6L35.5 20.1L40.9 19.6L43 14.5Z" fill="#FAFAF8"/>
  <circle cx="21" cy="18" r="2.3" fill="#E8E0D0"/>
  <circle cx="28" cy="12" r="1.6" fill="#C9B99A"/>
  <circle cx="54" cy="42" r="2" fill="#E8E0D0"/>
  <circle cx="47" cy="47" r="1.5" fill="#B8A687"/>
  <circle cx="13" cy="31" r="1.8" fill="#C9B99A"/>
  <circle cx="27" cy="39" r="1.3" fill="#E8E0D0"/>
</svg>
